PathFileType	4	(X/Y/Z)	Demo_SinglePerson_0-995.trc
DataRate	CameraRate	NumFrames	NumMarkers	Units	OrigDataRate	OrigDataStartFrame	OrigNumFrames
30	30	4	22	m	30	0	995
Frame#	Time	Hip			RHip			RKnee			RAnkle			RBigToe			RSmallToe			RHeel			LHip			LKnee			LAnkle			LBigToe			LSmallToe			LHeel			Neck			Head			Nose			RShoulder			RElbow			RWrist			LShoulder			LElbow			LWrist		
		X1	Y1	Z1	X2	Y2	Z2	X3	Y3	Z3	X4	Y4	Z4	X5	Y5	Z5	X6	Y6	Z6	X7	Y7	Z7	X8	Y8	Z8	X9	Y9	Z9	X10	Y10	Z10	X11	Y11	Z11	X12	Y12	Z12	X13	Y13	Z13	X14	Y14	Z14	X15	Y15	Z15	X16	Y16	Z16	X17	Y17	Z17	X18	Y18	Z18	X19	Y19	Z19	X20	Y20	Z20	X21	Y21	Z21	X22	Y22	Z22
0	0.0	0.24325144346740304	0.9807743363253859	0.23153023435514994	0.22641470277341139	0.9720585099589137	0.3383598021458584	0.20653291879130392	0.5144494849907809	0.3585945343583771	0.21870876565025163	0.10029071049787285	0.3689234795301855	0.3416000723654242	0.06178524941880655	0.3736286050376802	0.3630077910811872	0.05555939730765428	0.42149886671029163	0.17616173959488277	0.02769520826733273	0.3284612513558485	0.23985159508238707	0.9918798253487037	0.1107852846977788	0.23169574175110724	0.5065000730321008	0.11091383743158	0.25764572221577087	0.10561369421426033	0.12297279839563435	0.4264265166122194	0.033548904696786216	0.059710720455206895	0.36001732421783167	0.045775050561292344	-0.027355778079788888	0.2151989253129459	0.039967760308543786	0.14272892341708582	0.24342773965606795	1.545074976529303	0.22177607680216246	0.380948079773184	1.83499693688842	0.22676099356806986	0.40144811065731884	1.7219258773192045	0.27077101677236026	0.22575570984843904	1.5173580843784016	0.42361027426559617	0.3022526696656015	1.7242769138158687	0.5603960800204206	0.3668673847366657	1.959244037728909	0.5073009722410314	0.22445452609896918	1.5333569104533402	0.05671743656745561	0.30367489089582045	1.7580192992447432	-0.11915615934095836	0.36234087044275315	1.9408318210663595	-0.053357151737956604
1	0.03333333333333333	0.24600125206051904	0.9789642092017209	0.23575123908764323	0.2324783694040083	0.9892291603364195	0.34381572038322095	0.20927393888344836	0.5152334295484865	0.3583503716889219	0.20754342585463986	0.11046879591214297	0.3550588590506478	0.38010969137039646	0.04921352677877879	0.37573735868288166	0.3593838169357639	0.04726703795181113	0.41646371520505027	0.18078121275714126	0.04228849850175381	0.33568064569814166	0.243099820331272	0.9841965707439695	0.11357740465638172	0.23403040434576378	0.5144110818773976	0.10719659889860828	0.2429875904396354	0.11235995387822674	0.10527773544637335	0.4340143534679479	0.03396842326776766	0.06455851624783125	0.38173599454838303	0.034306648881939156	0.010373769550309456	0.22030458096411032	0.04057769901191044	0.13223560959577654	0.24339620355353478	1.5477511122426009	0.2234631923066951	0.3981175235346748	1.8242055400317163	0.2074578340983742	0.4060130343575894	1.7075219833086752	0.23078634666035416	0.22945894343416198	1.5192362852187362	0.4119714799028796	0.3022445664862527	1.7242613592173623	0.5570067093021746	0.37798663958008316	1.9525361679618607	0.5318855973067287	0.22142798610288678	1.5205706742462197	0.04602017730254086	0.2927199094317615	1.7544989485035158	-0.08005452125522232	0.35663867393638987	1.959750239339177	-0.056978049629014364
2	0.06666666666666667	0.24569599428632344	0.9797957532788815	0.23582844524172525	0.2346951965248434	0.9900417734278406	0.3473265463049499	0.20903305688543708	0.5151481725116828	0.3580601921105516	0.20733510156265222	0.10966949396881322	0.3549801003690471	0.38029165506583634	0.048278746214602895	0.3759041317016431	0.3569609989605705	0.04951714537604799	0.4180082865976886	0.1805232552092921	0.04373667823549849	0.3375550661847829	0.24274401585266564	0.9830041954110861	0.11319969823229385	0.23355289433841517	0.5142668461512168	0.10646838310158753	0.24254727126597553	0.11157889770725604	0.10481203915566364	0.4370811417212274	0.03205102942261386	0.0670367015524316	0.385805605123025	0.029689967814497755	0.0200433681862664	0.2225709676139508	0.041198467536846126	0.13267954535259993	0.24563140331939537	1.54793541257214	0.2217901662924823	0.3956393635955187	1.8238713238396467	0.20452875404096918	0.4060667273955132	1.7057345463546913	0.2294036774795968	0.22933036245632696	1.5173187531035635	0.410918188943853	0.3025264145212158	1.7243867491933254	0.5573313381324709	0.3783692678408802	1.9548560608744878	0.5335629831589611	0.22102546234558668	1.5202186490659546	0.04516104216301639	0.2935300987855926	1.7549943985392373	-0.07513271805439195	0.3564804887038393	1.9602391949590123	-0.057528232249740616
3	0.1	0.245476838721596	0.9808035897517067	0.23553944441663896	0.2344719034421851	0.9871595431005586	0.3475941077058285	0.20879237497522776	0.5150652085493207	0.35776926001292986	0.20951166532878612	0.10827936749961573	0.35765713568606883	0.37487797222220337	0.04861538411270787	0.37633352206353515	0.3568767318459107	0.05093159981263262	0.4200659955142819	0.1802087628002263	0.04277517137404221	0.33747947991339355	0.24235438452051772	0.9838052476545267	0.11299616476460689	0.23326198528356554	0.5122520157408321	0.10699734374976112	0.24508119205840392	0.11017518313934128	0.10715496966793364	0.4370960529153626	0.031179223224577498	0.06673687621221089	0.38251369123761053	0.029855783795645133	0.01685664733352156	0.2223338485418381	0.042588739472080264	0.1340746227611946	0.24536534418756156	1.5479025679596115	0.22131262582943773	0.39055128876748757	1.825289427772663	0.2059651656416655	0.4036750270358983	1.7075642389184273	0.23364516463754498	0.22927404825044628	1.5169230856769182	0.4129376233343347	0.30251247702264067	1.7249862140021075	0.5576285597688538	0.3764714263091709	1.9559840804517117	0.5286229649916075	0.2206677872503001	1.522188468312564	0.04549559554616771	0.29496748936746997	1.7555344520487028	-0.0788536387274296	0.3561819729435836	1.9568878967044208	-0.058375546759640476
